# Blender v2.83.0 OBJ File: 'груша.blend'
# www.blender.org
mtllib carrot.mtl
o Cube.001_Cube.005
v -1.064618 2.285683 -0.815569
v -0.990153 2.273200 -1.026263
v -1.062485 2.235054 -0.989393
v -0.870637 2.262885 -0.745962
v -0.905257 2.186912 -0.920204
v -0.949896 2.220559 -1.069000
v -0.870250 2.125818 -0.692020
v -0.969355 2.105656 -0.864987
v -0.917174 2.124233 -0.941454
v -1.024622 2.117321 -0.715154
v -1.080412 2.202219 -0.957085
v -1.066188 2.152855 -0.911538
v -1.056664 2.153623 -1.074881
v -0.978760 2.169359 -1.321637
v -0.987256 2.136894 -1.103863
v -0.861579 2.271663 -0.471453
v -1.027180 2.290962 -0.458691
v -1.080499 2.203270 -0.654110
v -1.046117 2.123371 -0.613933
v -0.978969 2.109575 -0.612569
v -0.864085 2.123971 -0.543340
v -0.837407 2.175338 -0.583548
v -0.879792 2.300564 -0.586370
v -0.961889 2.321334 -0.634298
v -1.047614 2.301800 -0.605360
v -1.089426 2.205038 -0.730244
v -0.844392 2.185209 -0.741457
v -1.084418 2.177487 -0.997508
v -1.043579 2.224486 -1.092454
v -1.043987 2.148982 -0.485346
v -0.877623 2.128299 -0.465414
v -0.976667 2.302545 -0.767517
v -0.938977 2.105391 -0.715706
v -0.964655 2.210142 -0.407665
v -1.004221 2.255723 -0.394420
v -0.903167 2.248007 -0.402321
v -1.026597 2.156999 -0.426338
v -0.902590 2.168084 -0.409610
vn -0.5459 0.8026 -0.2405
vn 0.9561 0.1463 -0.2538
vn 0.2750 -0.9604 -0.0456
vn -0.9763 -0.1088 0.1869
vn -0.2912 -0.9445 -0.1522
vn -0.9428 0.0744 0.3250
vn -0.8755 -0.4565 -0.1586
vn 0.1349 -0.9907 -0.0179
vn 0.9471 0.3201 -0.0212
vn -0.2394 0.9694 -0.0550
vn -0.9083 0.4020 0.1158
vn 0.8931 -0.4449 -0.0673
vn -0.9577 0.2447 0.1515
vn 0.1451 -0.9796 -0.1390
vn 0.7795 -0.5648 -0.2708
vn -0.9665 0.2533 -0.0416
vn -0.9584 0.2766 -0.0702
vn -0.9964 0.0471 0.0699
vn -0.8887 0.4250 -0.1719
vn -0.1466 -0.9636 0.2236
vn -0.0833 -0.9798 0.1820
vn -0.0395 -0.9875 0.1528
vn 0.3754 0.9111 -0.1701
vn -0.1380 -0.9903 -0.0134
vn 0.9533 -0.0946 0.2869
vn -0.3922 0.8630 -0.3185
vn -0.1377 -0.9901 0.0263
vn 0.3696 0.9209 -0.1237
vn 0.9022 0.3909 -0.1823
vn -0.9297 0.0827 -0.3590
vn -0.1267 -0.9598 0.2506
vn -0.9504 0.1027 -0.2935
vn 0.8774 -0.0634 0.4756
vn -0.0783 -0.9222 0.3788
vn 0.1178 0.9032 0.4129
vn 0.1212 0.8990 0.4209
vn 0.1289 0.8993 0.4179
vn 0.1287 0.9024 0.4112
vn 0.1270 0.9690 0.2120
vn 0.1132 0.9677 0.2254
vn -0.0054 0.9852 0.1711
vn -0.1317 0.9857 -0.1049
vn 0.9071 0.2888 -0.3061
vn 0.3044 -0.9504 -0.0636
vn -0.8021 -0.5968 -0.0245
vn -0.8083 -0.5832 0.0812
vn 0.2403 -0.9617 0.1322
vn 0.9475 0.3189 -0.0220
vn -0.1202 0.9848 -0.1256
vn -0.9550 0.2916 0.0549
vn 0.8727 -0.4863 -0.0422
vn -0.9302 -0.3568 0.0865
vn -0.9699 0.0711 0.2327
vn -0.4230 -0.8982 -0.1196
vn -0.3565 -0.9155 -0.1867
vn -0.4370 -0.8938 -0.1008
vn -0.4587 -0.8849 -0.0813
vn 0.9754 -0.1235 -0.1827
vn -0.9167 0.3804 -0.1220
vn -0.9774 -0.1229 0.1721
vn -0.9295 0.3085 -0.2022
vn -0.2012 -0.9600 0.1945
vn 0.0827 -0.9941 0.0696
vn 0.3468 0.9171 -0.1966
vn -0.2015 -0.9794 0.0157
vn 0.9234 -0.3393 0.1793
vn 0.9454 0.3184 -0.0698
vn -0.5297 0.8284 -0.1821
vn 0.6808 0.6988 -0.2194
vn -0.4059 -0.9105 -0.0788
vn 0.6575 0.7092 -0.2543
vn 0.9163 -0.0391 -0.3985
vn 0.6530 -0.7523 -0.0867
vn -0.1893 0.9770 0.0986
vn 0.0402 0.9817 0.1862
vn 0.0582 -0.2316 0.9711
vn -0.1122 -0.2105 0.9711
vn -0.0305 -0.0910 0.9954
vn -0.0285 -0.3016 0.9530
usemtl Default_OBJ.013
s 1
f 1//1 2//1 3//1
f 4//2 5//2 6//2
f 7//3 8//3 9//3
f 10//4 11//4 12//4
f 13//5 14//5 15//5
f 17//6 30//6 37//6 35//6
f 18//7 10//7 19//7
f 20//8 7//8 21//8
f 22//9 4//9 23//9
f 24//10 1//10 25//10
f 18//11 1//11 26//11
f 22//12 7//12 27//12
f 17//13 25//13 18//13
f 15//14 9//14 8//14
f 7//15 5//15 27//15
f 1//16 11//16 26//16
f 28//17 11//18 29//19
f 30//20 20//21 31//22
f 24//23 4//23 32//23
f 20//24 10//24 33//24
f 22//25 16//25 31//25
f 2//26 14//26 29//26
f 10//27 8//27 33//27
f 4//28 2//28 32//28
f 14//29 6//29 5//29
f 28//30 29//30 13//30
f 15//31 28//31 13//31
f 29//32 14//32 13//32
f 31//33 16//33 36//33 38//33
f 30//34 31//34 38//34 37//34
f 16//35 17//36 35//37 36//38
f 16//39 23//40 24//41
f 1//42 32//42 2//42
f 4//43 27//43 5//43
f 7//44 33//44 8//44
f 10//45 26//45 11//45
f 18//46 26//46 10//46
f 20//47 33//47 7//47
f 22//48 27//48 4//48
f 24//49 32//49 1//49
f 18//50 25//50 1//50
f 22//51 21//51 7//51
f 18//52 19//52 30//52
f 30//53 17//53 18//53
f 8//54 12//55 28//56
f 28//56 15//57 8//54
f 7//58 9//58 5//58
f 1//59 3//59 11//59
f 12//60 11//18 28//17
f 11//61 3//61 29//61
f 19//62 20//62 30//62
f 20//21 21//63 31//22
f 24//64 23//64 4//64
f 20//65 19//65 10//65
f 31//66 21//66 22//66
f 22//67 23//67 16//67
f 29//68 3//68 2//68
f 2//69 6//69 14//69
f 10//70 12//70 8//70
f 4//71 6//71 2//71
f 9//72 15//72 5//72
f 15//73 14//73 5//73
f 25//74 17//75 24//41
f 17//75 16//39 24//41
f 34//76 36//76 35//76
f 37//77 38//77 34//77
f 38//78 36//78 34//78
f 35//79 37//79 34//79
